<!DOCTYPE svg PUBLIC "-//W3C//DTD SVG 1.1//EN" "http://www.w3.org/Graphics/SVG/1.1/DTD/svg11.dtd">
<!-- Uploaded to: SVG Repo, www.svgrepo.com, Transformed by: SVG Repo Mixer Tools -->
<svg height="64px" width="64px" version="1.1" id="_x32_" xmlns="http://www.w3.org/2000/svg" xmlns:xlink="http://www.w3.org/1999/xlink" viewBox="0 0 512 512" xml:space="preserve" fill="#000000" transform="matrix(-1, 0, 0, 1, 0, 0)">
<g id="SVGRepo_bgCarrier" stroke-width="0"/>
<g id="SVGRepo_tracerCarrier" stroke-linecap="round" stroke-linejoin="round"/>
<g id="SVGRepo_iconCarrier"> <style type="text/css"> .st0{fill:#009e7f;} </style> <g> <path class="st0" d="M169.756,469.575h172.488c90.836,0,164.466-73.63,164.466-164.466H5.29 C5.29,395.945,78.92,469.575,169.756,469.575z"/> <path class="st0" d="M23.137,248.95v-49.437c0-27.296,7.976-53.949,22.744-76.842l4.755,3.612l12.724-14.878L37.953,91.959 L27.219,108.49l4.521,3.431c-17.096,26.003-26.317,56.426-26.317,87.592v49.437H5.29v32.091h501.42V248.95H23.137z"/> <path class="st0" d="M261.21,94.882c1.285-0.071,2.523-0.635,3.393-1.59c0.854-0.964,1.308-2.249,1.253-3.526 c-0.078-1.285-0.65-2.515-1.606-3.385c-0.956-0.87-2.241-1.316-3.518-1.253c-1.284,0.062-2.53,0.642-3.392,1.606 c-0.854,0.94-1.317,2.233-1.238,3.525c0.054,1.277,0.643,2.507,1.598,3.369C258.648,94.497,259.933,94.952,261.21,94.882z"/> <path class="st0" d="M166.841,55.512c1.285-0.07,2.507-0.658,3.377-1.614c0.87-0.948,1.317-2.233,1.261-3.51 c-0.062-1.285-0.65-2.523-1.598-3.393c-0.964-0.854-2.256-1.324-3.533-1.245c-1.285,0.071-2.523,0.643-3.393,1.598 c-0.862,0.956-1.324,2.233-1.245,3.525c0.054,1.285,0.65,2.523,1.598,3.385C164.263,55.113,165.557,55.567,166.841,55.512z"/> <path class="st0" d="M235.488,84.673c2.5,1.042,5.367-0.133,6.401-2.624c1.034-2.484-0.133-5.351-2.624-6.393 c-2.5-1.042-5.359,0.133-6.393,2.632C231.83,80.771,232.997,83.638,235.488,84.673z"/> <path class="st0" d="M211.906,74.825c2.484,1.042,5.351-0.133,6.385-2.64c1.034-2.484-0.133-5.343-2.632-6.377 c-2.484-1.034-5.351,0.141-6.385,2.624C208.224,70.915,209.407,73.791,211.906,74.825z"/> <path class="st0" d="M188.3,64.977c2.492,1.05,5.359-0.126,6.401-2.617c1.034-2.492-0.141-5.359-2.625-6.409 c-2.499-1.027-5.359,0.14-6.4,2.632C184.634,61.083,185.825,63.95,188.3,64.977z"/> <path class="st0" d="M150.858,65.055c0.071,1.285,0.659,2.507,1.606,3.377c0.956,0.862,2.232,1.324,3.526,1.262 c1.293-0.079,2.507-0.659,3.377-1.599c0.87-0.964,1.324-2.256,1.261-3.541c-0.062-1.277-0.642-2.515-1.606-3.377 c-0.956-0.87-2.233-1.332-3.518-1.261c-1.292,0.071-2.515,0.658-3.392,1.614C151.258,62.47,150.796,63.77,150.858,65.055z"/> <path class="st0" d="M174.01,82.292c2.287,1.449,5.304,0.768,6.761-1.497c1.45-2.272,0.784-5.296-1.488-6.746 c-2.272-1.457-5.296-0.791-6.738,1.481C171.079,77.81,171.753,80.826,174.01,82.292z"/> <path class="st0" d="M214.359,102.254c-1.466,2.288-0.799,5.296,1.48,6.738c2.257,1.465,5.28,0.799,6.746-1.473 c1.457-2.288,0.791-5.296-1.489-6.754C218.824,99.316,215.8,99.974,214.359,102.254z"/> <path class="st0" d="M193.439,88.888c-1.457,2.28-0.783,5.297,1.489,6.754c2.272,1.465,5.296,0.792,6.746-1.488 c1.465-2.264,0.791-5.297-1.481-6.73C197.914,85.942,194.905,86.632,193.439,88.888z"/> <path class="st0" d="M235.755,114.962c-0.862,0.972-1.332,2.241-1.262,3.526c0.055,1.284,0.643,2.515,1.598,3.377 c0.964,0.862,2.241,1.332,3.526,1.261c1.285-0.071,2.515-0.643,3.377-1.606c0.87-0.94,1.317-2.232,1.261-3.525 c-0.07-1.277-0.65-2.5-1.606-3.376c-0.94-0.863-2.233-1.317-3.525-1.254C237.839,113.426,236.617,114.006,235.755,114.962z"/> <path class="st0" d="M130.425,89.875c-0.862,0.956-1.316,2.241-1.253,3.525c0.07,1.285,0.642,2.523,1.614,3.377 c0.948,0.862,2.233,1.332,3.525,1.262c1.269-0.055,2.507-0.658,3.377-1.599c0.854-0.956,1.308-2.256,1.246-3.525 c-0.063-1.285-0.651-2.523-1.598-3.385c-0.956-0.862-2.24-1.316-3.526-1.253C132.533,88.347,131.288,88.919,130.425,89.875z"/> <path class="st0" d="M152.731,117.218c2.139-1.654,2.515-4.74,0.862-6.856c-1.652-2.139-4.716-2.523-6.855-0.87 c-2.139,1.653-2.507,4.717-0.862,6.864C147.521,118.488,150.592,118.871,152.731,117.218z"/> <path class="st0" d="M168.408,137.408c2.139-1.669,2.523-4.725,0.878-6.848c-1.677-2.139-4.732-2.538-6.864-0.87 c-2.139,1.661-2.522,4.732-0.87,6.848C163.214,138.67,166.285,139.069,168.408,137.408z"/> <path class="st0" d="M178.099,149.873c-2.131,1.669-2.53,4.732-0.862,6.864c1.654,2.139,4.716,2.522,6.855,0.862 c2.139-1.646,2.515-4.725,0.862-6.848C183.294,148.619,180.231,148.228,178.099,149.873z"/> <path class="st0" d="M196.535,169.06c-1.293,0.054-2.523,0.642-3.385,1.606c-0.87,0.94-1.316,2.241-1.261,3.51 c0.07,1.277,0.65,2.53,1.621,3.377c0.94,0.878,2.21,1.332,3.503,1.261c1.292-0.063,2.522-0.643,3.384-1.606 c0.862-0.947,1.324-2.232,1.254-3.51c-0.063-1.277-0.651-2.53-1.606-3.392C199.088,169.444,197.819,168.99,196.535,169.06z"/> <path class="st0" d="M149.777,78.742c-0.063-1.286-0.634-2.523-1.599-3.393c-0.956-0.862-2.248-1.316-3.525-1.253 c-1.277,0.062-2.515,0.658-3.385,1.606c-0.862,0.964-1.308,2.241-1.253,3.525c0.078,1.285,0.65,2.515,1.614,3.377 c0.94,0.87,2.234,1.316,3.526,1.262c1.284-0.071,2.507-0.643,3.369-1.599C149.385,81.296,149.847,80.02,149.777,78.742z"/> <path class="st0" d="M178.021,109.054c-1.81,1.998-1.661,5.085,0.329,6.903c2.006,1.809,5.085,1.676,6.902-0.337 c1.818-1.99,1.676-5.078-0.329-6.895C182.926,106.9,179.831,107.065,178.021,109.054z"/> <path class="st0" d="M196.393,125.726c-1.818,1.998-1.676,5.101,0.329,6.911c1.998,1.809,5.093,1.661,6.895-0.33 c1.833-1.998,1.677-5.085-0.329-6.91C201.291,123.58,198.203,123.737,196.393,125.726z"/> <path class="st0" d="M166.889,98.948c1.81-2.013,1.668-5.092-0.329-6.902c-1.998-1.818-5.093-1.654-6.919,0.321 c-1.809,2.006-1.652,5.093,0.345,6.918C161.983,101.094,165.071,100.938,166.889,98.948z"/> <path class="st0" d="M218.135,140.816c-1.293,0.078-2.515,0.642-3.377,1.606c-0.878,0.948-1.324,2.233-1.269,3.525 c0.071,1.277,0.642,2.515,1.606,3.37c0.947,0.877,2.233,1.332,3.525,1.269c1.285-0.07,2.515-0.651,3.377-1.622 c0.862-0.94,1.324-2.225,1.254-3.51c-0.055-1.292-0.642-2.522-1.599-3.377C220.705,141.216,219.419,140.761,218.135,140.816z"/> <path class="st0" d="M96.69,71.62l5.382,3.76l38.836-50.769L119.175,5.269l-3.306-2.507c-2.852-2.194-6.479-3.126-10.02-2.632 c-3.573,0.494-6.785,2.397-8.924,5.273c0,0-10.373,10.968-14.769,17.071C44.463,74.676,41.98,85.715,41.98,85.715l26.019,19.9 L96.69,71.62z"/> <path class="st0" d="M112.429,82.581c2.953,2.037,6.964,1.386,9.128-1.434l29.779-38.938c2.131-2.79,1.763-6.754-0.877-9.104 l-4.224-3.753L107.909,79.44L112.429,82.581z"/> <path class="st0" d="M74.964,466.512c-12.52,0-22.705,10.185-22.705,22.704c0,12.591,10.185,22.784,22.705,22.784 c12.512,0,22.219-6.738,26.716-21.263c1.442-4.49,3.37-13.632,4.654-22.462c-8.187-2.892-16.131-6.417-23.669-10.35 C80.738,464.506,77.212,466.512,74.964,466.512z"/> <path class="st0" d="M436.95,466.512c-2.249,0-5.782-2.006-7.702-8.587c-7.545,3.933-15.489,7.458-23.669,10.35 c1.363,8.83,3.291,17.972,4.654,22.462C414.723,505.262,424.429,512,436.95,512c12.59,0,22.783-10.193,22.783-22.784 C459.733,476.697,449.54,466.512,436.95,466.512z"/> </g> </g>
</svg>