<!DOCTYPE svg PUBLIC "-//W3C//DTD SVG 1.1//EN" "http://www.w3.org/Graphics/SVG/1.1/DTD/svg11.dtd">
<!-- Uploaded to: SVG Repo, www.svgrepo.com, Transformed by: SVG Repo Mixer Tools -->
<svg fill="#009e7f" height="64px" width="64px" version="1.1" id="Capa_1" xmlns="http://www.w3.org/2000/svg" xmlns:xlink="http://www.w3.org/1999/xlink" viewBox="0 0 54 54" xml:space="preserve">
<g id="SVGRepo_bgCarrier" stroke-width="0"/>
<g id="SVGRepo_tracerCarrier" stroke-linecap="round" stroke-linejoin="round"/>
<g id="SVGRepo_iconCarrier"> <g> <path d="M40,13.183V10c0-0.553-0.447-1-1-1h-2.051C36.446,3.954,32.176,0,27,0s-9.446,3.954-9.949,9H15c-0.553,0-1,0.447-1,1v3.183 c-1.161,0.413-2,1.514-2,2.818V27v13v10.999C12,52.653,13.342,54,14.991,54h24.018C40.658,54,42,52.653,42,50.999V16.001 C42,14.697,41.161,13.595,40,13.183z M27,2c4.072,0,7.436,3.06,7.931,7H23.142C23.589,7.28,25.141,6,27,6c0.553,0,1-0.447,1-1 s-0.447-1-1-1c-2.967,0-5.431,2.167-5.91,5h-2.021C19.564,5.06,22.928,2,27,2z M16,11h22v2H16V11z M14,28h14v11H14V28z M40,50.999 C40,51.551,39.556,52,39.009,52H14.991C14.436,52,14,51.561,14,50.999V41h15c0.553,0,1-0.447,1-1V27c0-0.553-0.447-1-1-1H14v-9.999 C14,15.449,14.444,15,14.991,15H15h24h0.009C39.564,15,40,15.439,40,16.001V50.999z"/> </g> </g>
</svg>