<!DOCTYPE svg PUBLIC "-//W3C//DTD SVG 1.1//EN" "http://www.w3.org/Graphics/SVG/1.1/DTD/svg11.dtd">
<!-- Uploaded to: SVG Repo, www.svgrepo.com, Transformed by: SVG Repo Mixer Tools -->
<svg fill="#009e7f" version="1.1" id="Capa_1" xmlns="http://www.w3.org/2000/svg" xmlns:xlink="http://www.w3.org/1999/xlink" width="64px" height="64px" viewBox="0 0 457.455 457.454" xml:space="preserve">
<g id="SVGRepo_bgCarrier" stroke-width="0"/>
<g id="SVGRepo_tracerCarrier" stroke-linecap="round" stroke-linejoin="round"/>
<g id="SVGRepo_iconCarrier"> <g> <g> <path d="M188.441,43.999c-1.327-0.569-3.018-1.168-5.118-1.723v4.065c0,7.141-5.811,12.954-12.956,12.954h-32.011 c-7.146,0-12.956-5.813-12.956-12.954v-4.17c-2.1,0.549-3.791,1.154-5.118,1.737c-2.913,1.269-4.907,5.73-5.093,8.9 c-1.334,22.39-6.031,104.668-5.41,146.071c0.637,42.5,10.78,203.587,13.165,241.109c0.274,4.34,3.51,9.689,7.482,11.429 c6.231,2.737,15.923,5.888,26.118,5.054c9.139-0.77,16.667-3.138,21.73-5.214c4.018-1.627,7.275-6.929,7.552-11.261 c2.376-37.497,12.481-198.508,13.119-241.004c0.621-41.403-4.068-123.675-5.41-146.065 C193.346,49.738,191.346,45.273,188.441,43.999z"/> <path d="M154.364,0c13.607,0,24.64,2.981,24.64,6.658c0,3.675-11.033,6.658-24.64,6.658c-13.611,0-24.644-2.983-24.644-6.658 C129.72,2.981,140.752,0,154.364,0z"/> <path d="M129.72,44.51c6.953,1.168,30.044,3.581,49.284-11.267v-9.019c-13.11,9.341-27.611,11.461-37.965,11.461 c-4.913,0-8.854-0.467-11.319-0.856V44.51z"/> <path d="M129.72,31.919c6.953,1.168,30.044,3.579,49.284-11.267v-7.163c-13.689,9.149-28.254,11.207-38.481,11.207 c-4.697,0-8.434-0.425-10.802-0.793V31.919z"/> <path d="M129.72,50.778c0,1.859,3.872,3.364,8.636,3.364h32.011c4.769,0,8.636-3.859,8.636-8.636V36.81 c-13.11,9.341-27.611,11.461-37.965,11.461c-4.913,0-8.854-0.473-11.319-0.856C129.72,47.416,129.72,48.915,129.72,50.778z"/> <path d="M129.72,21.005c5.887,0.958,23.313,2.711,40.79-5.925c-4.318,1.03-9.962,1.647-16.146,1.647 c-11.542,0-21.197-2.142-23.88-5.035h-0.771v9.313H129.72z"/> <path d="M283.473,310.181c1.274,25.367,6.432,123.092,11.124,141.382c0,0,23.268,13.257,43.329,0l9.806-141.258 c-6.34,5.587-19.235,8.492-32.075,8.492C302.752,318.784,289.752,315.855,283.473,310.181z"/> <path d="M319.284,286.341V121.846c3.51-1.447,6.011-4.885,6.011-8.917v-1.932h3.006c0.657,0,1.202-0.541,1.202-1.192 c0-0.687-0.545-1.212-1.202-1.212h-3.006v-1.507h3.006c0.657,0,1.202-0.539,1.202-1.198c0-0.679-0.545-1.204-1.202-1.204h-3.006 v-1.499h3.006c0.657,0,1.202-0.541,1.202-1.2c0-0.675-0.545-1.205-1.202-1.205h-3.006v-1.504h3.006 c0.657,0,1.202-0.533,1.202-1.192c0-0.675-0.545-1.212-1.202-1.212h-3.006v-1.499h3.006c0.657,0,1.202-0.533,1.202-1.192 c0-0.673-0.545-1.206-1.202-1.206h-3.006v-1.503h3.006c0.657,0,1.202-0.533,1.202-1.192c0-0.684-0.545-1.208-1.202-1.208h-3.006 v-1.499h3.006c0.657,0,1.202-0.545,1.202-1.205c0-0.673-0.545-1.198-1.202-1.198h-3.006v-1.499h3.006 c0.657,0,1.202-0.545,1.202-1.204c0-0.676-0.545-1.2-1.202-1.2h-3.006v-1.499h3.006c0.657,0,1.202-0.543,1.202-1.204 c0-0.673-0.545-1.207-1.202-1.207h-3.006v-1.499h3.006c0.657,0,1.202-0.533,1.202-1.192c0-0.679-0.545-1.212-1.202-1.212h-3.006 v-1.499h3.006c0.657,0,1.202-0.533,1.202-1.192c0-0.673-0.545-1.21-1.202-1.21h-3.006v-1.499h3.006 c0.657,0,1.202-0.541,1.202-1.192c0-0.684-0.545-1.208-1.202-1.208h-3.006v-1.587h3.006c0.657,0,1.202-0.543,1.202-1.202 c0-0.675-0.545-1.2-1.202-1.2h-3.006v-1.499h3.006c0.657,0,1.202-0.541,1.202-1.2c0-0.679-0.545-1.204-1.202-1.204h-3.006v-1.507 h3.006c0.657,0,1.202-0.531,1.202-1.19c0-0.675-0.545-1.212-1.202-1.212h-3.006v-1.521h3.006c0.657,0,1.202-0.533,1.202-1.192 c0-0.675-0.545-1.212-1.202-1.212h-3.006v-1.507h3.006c0.657,0,1.202-0.533,1.202-1.192c0-0.682-0.545-1.207-1.202-1.207h-3.006 V44.51h3.006c0.657,0,1.202-0.541,1.202-1.2c0-0.673-0.545-1.2-1.202-1.2h-3.122c-0.116-0.828-0.293-1.647-0.598-2.411h3.724 c0.661,0,1.206-0.533,1.206-1.192c0-0.679-0.545-1.21-1.206-1.21h-5.182c-0.196-0.25-0.389-0.533-0.621-0.759l3.858-3.757 c0.481-0.467,0.489-1.222,0.021-1.693c-0.457-0.489-1.218-0.489-1.691-0.04l-4.136,4.017c-0.372-0.226-0.749-0.444-1.149-0.625 l2.087-5.424c0.245-0.627-0.067-1.318-0.688-1.555c-0.613-0.246-1.318,0.068-1.56,0.689l-2.168,5.701 c-0.208-0.038-0.408-0.062-0.613-0.078l0.024-6.021c0-0.651-0.528-1.21-1.206-1.21c-0.665,0-1.194,0.543-1.194,1.188l-0.04,6.113 c-0.2,0.038-0.381,0.072-0.581,0.126l-2.24-5.835c-0.229-0.621-0.934-0.934-1.555-0.689c-0.621,0.235-0.938,0.928-0.689,1.553 l2.229,5.811c-0.329,0.18-0.657,0.331-0.966,0.533l-4.452-4.308c-0.478-0.457-1.243-0.457-1.703,0.038 c-0.453,0.471-0.445,1.227,0.023,1.693l4.356,4.202c-0.101,0.112-0.185,0.214-0.269,0.314h-5.178 c-0.657,0-1.202,0.533-1.202,1.212c0,0.657,0.537,1.19,1.202,1.19h3.719c-0.301,0.76-0.477,1.577-0.581,2.413h-3.138 c-0.657,0-1.202,0.525-1.202,1.198c0,0.661,0.537,1.2,1.202,1.2h3.014v1.519h-3.014c-0.657,0-1.202,0.525-1.202,1.208 c0,0.657,0.537,1.19,1.202,1.19h3.014v1.499h-3.014c-0.657,0-1.202,0.533-1.202,1.212c0,0.659,0.537,1.192,1.202,1.192h3.014 v1.499h-3.014c-0.657,0-1.202,0.533-1.202,1.206c0,0.666,0.537,1.196,1.202,1.196h3.014v1.507h-3.014 c-0.657,0-1.202,0.525-1.202,1.2c0,0.659,0.537,1.204,1.202,1.204h3.014v1.499h-3.014c-0.657,0-1.202,0.525-1.202,1.2 c0,0.657,0.537,1.202,1.202,1.202h3.014v1.499h-3.014c-0.657,0-1.202,0.525-1.202,1.208c0,0.651,0.537,1.196,1.202,1.196h3.014 v1.499h-3.014c-0.657,0-1.202,0.533-1.202,1.206c0,0.659,0.537,1.192,1.202,1.192h3.014v1.499h-3.014 c-0.657,0-1.202,0.537-1.202,1.212c0,0.659,0.537,1.192,1.202,1.192h3.014v1.499h-3.014c-0.657,0-1.202,0.535-1.202,1.21 c0,0.659,0.537,1.2,1.202,1.2h3.014v1.499h-3.014c-0.657,0-1.202,0.529-1.202,1.204c0,0.659,0.537,1.2,1.202,1.2h3.014v1.499 h-3.014c-0.657,0-1.202,0.525-1.202,1.202c0,0.659,0.537,1.2,1.202,1.2h3.014v1.499h-3.014c-0.657,0-1.202,0.525-1.202,1.208 c0,0.659,0.537,1.194,1.202,1.194h3.014v1.499h-3.014c-0.657,0-1.202,0.533-1.202,1.208c0,0.659,0.537,1.192,1.202,1.192h3.014 v1.503h-3.014c-0.657,0-1.202,0.533-1.202,1.208c0,0.659,0.537,1.192,1.202,1.192h3.014v1.509h-3.014 c-0.657,0-1.202,0.525-1.202,1.2c0,0.659,0.537,1.2,1.202,1.2h3.014v1.503h-3.014c-0.657,0-1.202,0.525-1.202,1.2 c0,0.659,0.537,1.198,1.202,1.198h3.014v1.507h-3.014c-0.657,0-1.202,0.525-1.202,1.212c0,0.651,0.537,1.192,1.202,1.192h3.014 v1.932c0,4.031,2.492,7.474,6.02,8.917v164.445c-16.455,0.617-29.311,6.107-29.311,12.764c0,6.668,12.855,12.143,29.311,12.771 v0.052h7.229v-0.1c16.029-0.781,28.448-6.18,28.448-12.724C347.732,292.504,335.313,287.122,319.284,286.341z"/> </g> </g> </g>
</svg>