<!DOCTYPE svg PUBLIC "-//W3C//DTD SVG 1.1//EN" "http://www.w3.org/Graphics/SVG/1.1/DTD/svg11.dtd">
<!-- Uploaded to: SVG Repo, www.svgrepo.com, Transformed by: SVG Repo Mixer Tools -->
<svg fill="#009e7f" height="64px" width="64px" version="1.1" id="Layer_1" xmlns="http://www.w3.org/2000/svg" xmlns:xlink="http://www.w3.org/1999/xlink" viewBox="0 0 503.172 503.172" xml:space="preserve">
<g id="SVGRepo_bgCarrier" stroke-width="0"/>
<g id="SVGRepo_tracerCarrier" stroke-linecap="round" stroke-linejoin="round"/>
<g id="SVGRepo_iconCarrier"> <g transform="translate(1 1)"> <g> <g> <path d="M224.103,228.517h-17.655V13.124C206.448,5.179,200.269-1,192.324-1C127-1,74.035,51.966,74.035,117.29v111.228H56.379 v79.448h-8.828v61.793v114.759c0,9.71,7.945,17.655,17.655,17.655h150.069c9.71,0,17.655-7.945,17.655-17.655V369.759v-61.793 h-8.828V228.517z M91.69,117.29c0-54.731,43.255-98.869,97.103-100.635v211.862H91.69V117.29z M65.207,325.621h150.069v26.483 H65.207V325.621z M74.035,246.172h132.414v61.793H74.035V246.172z M215.276,484.517H65.207V369.759h150.069V484.517z"/> <path d="M360.931,87.276c-51.2,0-92.69,41.49-92.69,92.69v172.138v88.276v44.138c0,9.71,7.945,17.655,17.655,17.655h150.069 c9.71,0,17.655-7.945,17.655-17.655v-44.138v-88.276V179.966C453.621,128.766,412.131,87.276,360.931,87.276z M285.897,369.759 h150.069v52.966H285.897V369.759z M435.966,484.517H285.897v-44.138h150.069V484.517z M285.897,352.103V179.966 c0-41.49,33.545-75.034,75.034-75.034c41.49,0,75.034,33.545,75.034,75.034v172.138H285.897z"/> <path d="M171.138,35.193c-35.31,7.945-62.676,50.317-67.09,84.745c0,4.414,3.531,8.828,7.945,9.71h0.883 c4.414,0,7.945-3.531,9.71-7.945c3.531-27.365,26.483-62.676,52.966-68.855c4.414-0.883,7.062-6.179,6.179-10.593 C180.848,36.959,175.552,34.31,171.138,35.193z"/> </g> </g> </g> </g>
</svg>