<!DOCTYPE svg PUBLIC "-//W3C//DTD SVG 1.1//EN" "http://www.w3.org/Graphics/SVG/1.1/DTD/svg11.dtd">
<!-- Uploaded to: SVG Repo, www.svgrepo.com, Transformed by: SVG Repo Mixer Tools -->
<svg fill="#009e7f" height="64px" width="64px" version="1.1" id="Capa_1" xmlns="http://www.w3.org/2000/svg" xmlns:xlink="http://www.w3.org/1999/xlink" viewBox="0 0 368.35 368.35" xml:space="preserve">
<g id="SVGRepo_bgCarrier" stroke-width="0"/>
<g id="SVGRepo_tracerCarrier" stroke-linecap="round" stroke-linejoin="round"/>
<g id="SVGRepo_iconCarrier"> <g> <g> <path d="M157.893,254.026C132.3,205.062,123.857,127.84,121.9,105.743l19.345-5.224c21.002-4.483,28.112-14.769,30.372-22.626 c4.369-15.194-5.9-31.978-16.022-41.732c-6.639-6.4,3.341-20.568,3.43-20.69c2.366-3.214,1.801-7.717-1.285-10.247 c-14.434-11.834-32.457-1.123-41.964,8.079c0,0-49.919,13.48-53.76,16.295c-3.171,2.323-8.099,7.664-5.487,17.336l81.882,303.201 c2.896,10.725,12.671,18.215,23.771,18.215c2.165,0,4.329-0.288,6.433-0.855c12.793-3.455,19.136-15.526,17.599-29.244 C185.997,332.373,183.59,303.194,157.893,254.026z M119.232,90.928l-15.688-58.785l10.843-2.928l15.862,58.737L119.232,90.928z M145.185,46.961c7.672,7.395,14.264,18.971,12.016,26.787c-1.463,5.087-6.768,8.276-12.475,10.274l-16.621-61.546 c3.292-2.757,8.782-6.707,13.829-7.306C137.522,24.875,135.558,37.681,145.185,46.961z M162.182,353.35 c-4.337,0.046-8.157-2.93-9.29-7.125c0,0-82.098-304.262-82.103-304.472c1.257-1.104,18.274-5.698,18.274-5.698l17.427,65.303 c0.687,9.946,7.75,101.535,38.108,159.616c26.29,50.301,26.635,77.97,26.636,78.204 C171.229,339.861,171.731,353.249,162.182,353.35z"/> <path d="M303.504,133.453C301.841,91.9,289.48,75.801,283.52,70.406L277.889,17.7c-0.408-3.812-3.624-6.703-7.458-6.703h-32.328 c-3.834,0-7.05,2.892-7.458,6.703l-5.632,52.705c-5.961,5.396-18.321,21.496-19.983,63.048 c-1.57,39.275-9.055,217.19-9.055,217.19c0,6.846,5.449,7.816,7.493,7.816h101.597c2.044,0,7.493-1.495,7.493-7.816 C312.558,348.962,305.45,182.134,303.504,133.453z M244.844,25.997h18.846l4.397,41.15h-27.641L244.844,25.997z M234.444,82.148 h39.647c3.456,3.563,13.01,16.521,14.425,51.905c1.428,35.704,5.592,134.911,7.74,185.977h-83.978 c1.85-43.954,6.257-148.903,7.74-185.977C221.433,98.668,230.988,85.71,234.444,82.148z M246.147,335.03v8.431h-11.566 l0.569-8.431H246.147z M261.147,335.03h12.236l0.569,8.431h-12.806V335.03z M211.646,335.03h8.469l-0.569,8.431h-8.255 L211.646,335.03z M288.987,343.46l-0.568-8.431h8.469c0.136,3.243,0.256,6.085,0.355,8.431H288.987z"/> <path d="M254.267,265.452c19.271,0,29.353-31.54,29.353-62.695c0-31.155-10.082-62.695-29.353-62.695s-29.353,31.54-29.353,62.695 C224.915,233.912,234.997,265.452,254.267,265.452z M254.267,155.062c4.165,0,14.353,16.714,14.353,47.695 c0,30.981-10.188,47.695-14.353,47.695c-4.165,0-14.353-16.714-14.353-47.695C239.915,171.776,250.102,155.062,254.267,155.062z"/> </g> </g> </g>
</svg>