<!DOCTYPE svg PUBLIC "-//W3C//DTD SVG 1.1//EN" "http://www.w3.org/Graphics/SVG/1.1/DTD/svg11.dtd">
<!-- Uploaded to: SVG Repo, www.svgrepo.com, Transformed by: SVG Repo Mixer Tools -->
<svg fill="#009e7f" height="64px" width="64px" version="1.1" id="Layer_1" xmlns="http://www.w3.org/2000/svg" xmlns:xlink="http://www.w3.org/1999/xlink" viewBox="0 0 512.868 512.868" xml:space="preserve">
<g id="SVGRepo_bgCarrier" stroke-width="0"/>
<g id="SVGRepo_tracerCarrier" stroke-linecap="round" stroke-linejoin="round"/>
<g id="SVGRepo_iconCarrier"> <g> <g> <path d="M491.607,17.356H342.346c-11.281,0-20.827,9.546-20.827,20.827v19.092c0,11.281,9.546,20.827,20.827,20.827h5.207 c19.092,0,34.712,15.62,34.712,34.712v34.712l-4.339,95.458h78.969l-5.207-95.458v-34.712c0-19.091,15.62-34.712,34.712-34.712 h5.207c11.281,0,20.827-9.546,20.827-20.827V38.183C512.434,26.902,502.888,17.356,491.607,17.356z M434.332,138.847H399.62 v-17.356h34.712V138.847z M435.2,104.136h-36.448c-1.736-9.546-6.075-19.092-13.017-26.034h61.614 C441.275,85.044,436.936,94.59,435.2,104.136z"/> </g> </g> <g> <g> <polygon points="456.895,260.339 377.058,260.339 375.322,295.051 458.63,295.051 "/> </g> </g> <g> <g> <path d="M468.176,459.932l-6.942-147.525h-86.78l-6.942,147.525c-0.868,13.885,4.339,26.902,13.885,37.315 c9.546,10.414,22.563,15.62,36.447,15.62c13.885,0,26.902-5.207,36.447-15.62S469.044,473.817,468.176,459.932z"/> </g> </g> <g> <g> <path d="M242.549,52.068V0H69.858v78.102H43.824v39.051c-25.166,8.678-43.39,32.976-43.39,61.614v29.505h173.559v208.271H0.434 v30.373c0,35.58,29.505,65.085,65.085,65.085h111.946c36.447,0,65.085-29.505,65.085-65.085V177.898 c0-28.637-18.224-52.068-43.39-61.614V78.102h-26.034V52.068H242.549z M173.993,95.458h8.678v17.356h-4.339H65.519H61.18V95.458 h8.678H173.993z"/> </g> </g> <g> <g> <path d="M0.434,225.627v34.712H61.18c5.207,0,8.678,3.471,8.678,8.678s-3.471,8.678-8.678,8.678H0.434v26.034H104.57 c5.207,0,8.678,3.471,8.678,8.678c0,5.207-3.471,8.678-8.678,8.678H0.434v26.034H104.57c5.207,0,8.678,3.471,8.678,8.678 c0,5.207-3.471,8.678-8.678,8.678H0.434v34.712h156.203V225.627H0.434z"/> </g> </g> </g>
</svg>